# xmcd
#
# Track frame offsets:
# 182
# 12785
# 32122
# 46840
# 71752
# 86150
# 100832
# 112967
# 129305
# 144602
# 158260
# 167015
# 180760
#
# Disc length: 2621 seconds
#
#
# Revision: 7
# Processed by: cddbd v1.5.2PL0 Copyright (c) Steve Scherf et al.
# Submitted via: FreeRIP 2.96 
#
DISCID=970a3b0d
DTITLE=Tom Waits - The Early Years Vol. One
DYEAR=1991
DGENRE=Alternative
TTITLE0=Goin' Down Slow
TTITLE1=Poncho's Lament
TTITLE2=I'm Your Late Night Evening Prostitute
TTITLE3=Had Me A Girl
TTITLE4=Ice Cream Man
TTITLE5=Rockin' Chair
TTITLE6=Virginia Ave.
TTITLE7=Midnight Lullabye
TTITLE8=When You Ain't Got Nobody
TTITLE9=Little Trip To Heaven
TTITLE10=Frank's Song
TTITLE11=Looks Like I'm Up Shit Creek Again
TTITLE12=So Long I'll See Ya
EXTD=YEAR: 1991
EXTT0=
EXTT1=
EXTT2=
EXTT3=
EXTT4=
EXTT5=
EXTT6=
EXTT7=
EXTT8=
EXTT9=
EXTT10=
EXTT11=
EXTT12=
PLAYORDER=
